<svg width="24" height="24" viewBox="0 0 24 24" fill="none" xmlns="http://www.w3.org/2000/svg">
<path d="M16 20L15.7 18.5C15.5 18.4167 15.3125 18.3292 15.1375 18.2375C14.9625 18.1458 14.7833 18.0333 14.6 17.9L13.15 18.35L12.15 16.65L13.3 15.65C13.2667 15.4167 13.25 15.2 13.25 15C13.25 14.8 13.2667 14.5833 13.3 14.35L12.15 13.35L13.15 11.65L14.6 12.1C14.7833 11.9667 14.9625 11.8542 15.1375 11.7625C15.3125 11.6708 15.5 11.5833 15.7 11.5L16 10H18L18.3 11.5C18.5 11.5833 18.6875 11.675 18.8625 11.775C19.0375 11.875 19.2167 12 19.4 12.15L20.85 11.65L21.85 13.4L20.7 14.4C20.7333 14.6 20.75 14.8083 20.75 15.025C20.75 15.2417 20.7333 15.45 20.7 15.65L21.85 16.65L20.85 18.35L19.4 17.9C19.2167 18.0333 19.0375 18.1458 18.8625 18.2375C18.6875 18.3292 18.5 18.4167 18.3 18.5L18 20H16ZM2 19V16.2C2 15.65 2.14167 15.1333 2.425 14.65C2.70833 14.1667 3.1 13.8 3.6 13.55C4.45 13.1167 5.40833 12.75 6.475 12.45C7.54167 12.15 8.71667 12 10 12H10.35C10.45 12 10.55 12.0167 10.65 12.05C10.1667 13.25 9.96667 14.4417 10.05 15.625C10.1333 16.8083 10.5333 17.9333 11.25 19H2ZM17 17C17.55 17 18.0208 16.8042 18.4125 16.4125C18.8042 16.0208 19 15.55 19 15C19 14.45 18.8042 13.9792 18.4125 13.5875C18.0208 13.1958 17.55 13 17 13C16.45 13 15.9792 13.1958 15.5875 13.5875C15.1958 13.9792 15 14.45 15 15C15 15.55 15.1958 16.0208 15.5875 16.4125C15.9792 16.8042 16.45 17 17 17ZM10 11C8.9 11 7.95833 10.6083 7.175 9.825C6.39167 9.04167 6 8.1 6 7C6 5.9 6.39167 4.95833 7.175 4.175C7.95833 3.39167 8.9 3 10 3C11.1 3 12.0417 3.39167 12.825 4.175C13.6083 4.95833 14 5.9 14 7C14 8.1 13.6083 9.04167 12.825 9.825C12.0417 10.6083 11.1 11 10 11Z" fill="#F8F9FA"/>
</svg>
