<svg width="24" height="24" viewBox="0 0 24 24" fill="none" xmlns="http://www.w3.org/2000/svg">
<path d="M12.7425 12L9.36 15.3825L10.9 16.95L15.85 12L10.9 7.05L9.36 8.6175L12.7425 12ZM12 23C10.4783 23 9.04833 22.7113 7.71 22.1337C6.37167 21.5562 5.2075 20.7725 4.2175 19.7825C3.2275 18.7925 2.44375 17.6283 1.86625 16.29C1.28875 14.9517 1 13.5217 1 12C1 10.4783 1.28875 9.04833 1.86625 7.71C2.44375 6.37167 3.2275 5.2075 4.2175 4.2175C5.2075 3.2275 6.37167 2.44375 7.71 1.86625C9.04833 1.28875 10.4783 1 12 1C13.5217 1 14.9517 1.28875 16.29 1.86625C17.6283 2.44375 18.7925 3.2275 19.7825 4.2175C20.7725 5.2075 21.5562 6.37167 22.1337 7.71C22.7113 9.04833 23 10.4783 23 12C23 13.5217 22.7113 14.9517 22.1337 16.29C21.5562 17.6283 20.7725 18.7925 19.7825 19.7825C18.7925 20.7725 17.6283 21.5562 16.29 22.1337C14.9517 22.7113 13.5217 23 12 23ZM12 20.8C14.4567 20.8 16.5375 19.9475 18.2425 18.2425C19.9475 16.5375 20.8 14.4567 20.8 12C20.8 9.54333 19.9475 7.4625 18.2425 5.7575C16.5375 4.0525 14.4567 3.2 12 3.2C9.54333 3.2 7.4625 4.0525 5.7575 5.7575C4.0525 7.4625 3.2 9.54333 3.2 12C3.2 14.4567 4.0525 16.5375 5.7575 18.2425C7.4625 19.9475 9.54333 20.8 12 20.8Z" fill="#F8F9FA"/>
</svg>
