<svg width="24" height="24" viewBox="0 0 24 24" fill="none" xmlns="http://www.w3.org/2000/svg">
<path d="M12 8.15L16.95 13.1L15.3825 14.64L12 11.2575L8.6175 14.64L7.05 13.1L12 8.15ZM12 1C10.4783 1 9.04833 1.28875 7.71 1.86625C6.37167 2.44375 5.2075 3.2275 4.2175 4.2175C3.2275 5.2075 2.44375 6.37167 1.86625 7.71C1.28875 9.04833 1 10.4783 1 12C1 13.5217 1.28875 14.9517 1.86625 16.29C2.44375 17.6283 3.2275 18.7925 4.2175 19.7825C5.2075 20.7725 6.37167 21.5562 7.71 22.1337C9.04833 22.7112 10.4783 23 12 23C13.5217 23 14.9517 22.7112 16.29 22.1337C17.6283 21.5562 18.7925 20.7725 19.7825 19.7825C20.7725 18.7925 21.5562 17.6283 22.1337 16.29C22.7112 14.9517 23 13.5217 23 12C23 10.4783 22.7112 9.04833 22.1337 7.71C21.5562 6.37167 20.7725 5.2075 19.7825 4.2175C18.7925 3.2275 17.6283 2.44375 16.29 1.86625C14.9517 1.28875 13.5217 1 12 1ZM12 3.2C14.4567 3.2 16.5375 4.0525 18.2425 5.7575C19.9475 7.4625 20.8 9.54333 20.8 12C20.8 14.4567 19.9475 16.5375 18.2425 18.2425C16.5375 19.9475 14.4567 20.8 12 20.8C9.54333 20.8 7.4625 19.9475 5.7575 18.2425C4.0525 16.5375 3.2 14.4567 3.2 12C3.2 9.54333 4.0525 7.4625 5.7575 5.7575C7.4625 4.0525 9.54333 3.2 12 3.2Z" fill="#F8F9FA"/>
</svg>
