<svg width="24" height="24" viewBox="0 0 24 24" fill="none" xmlns="http://www.w3.org/2000/svg">
<g clip-path="url(#clip0_907_1283)">
<path d="M12.0192 23.5C10.5231 23.5 9.108 23.2337 7.774 22.701C6.44 22.1683 5.25633 21.4302 4.223 20.4865C3.18967 19.543 2.34417 18.4308 1.6865 17.15C1.02883 15.8692 0.633333 14.4858 0.5 13H2C2.13333 14.232 2.467 15.3801 3.001 16.4443C3.535 17.5084 4.22375 18.4405 5.06725 19.2405C5.91092 20.0405 6.87858 20.6799 7.97025 21.1588C9.06192 21.6376 10.227 21.9078 11.4655 21.9693L9.723 20.227L10.777 19.173L14.7578 23.1538C14.3064 23.2859 13.8526 23.3767 13.3962 23.426C12.9397 23.4753 12.4808 23.5 12.0192 23.5ZM15 18.5V16.5H9.30775C8.80908 16.5 8.38308 16.3234 8.02975 15.9703C7.67658 15.6169 7.5 15.1909 7.5 14.6923V9H5.5V7.5H7.5V5.5H9V14.6923C9 14.7692 9.03208 14.8398 9.09625 14.9038C9.16025 14.9679 9.23075 15 9.30775 15H19V16.5H16.5V18.5H15ZM15 13.5V9.30775C15 9.23075 14.9679 9.16025 14.9038 9.09625C14.8398 9.03208 14.7692 9 14.6923 9H10.5V7.5H14.6923C15.1909 7.5 15.6169 7.67658 15.9703 8.02975C16.3234 8.38308 16.5 8.80908 16.5 9.30775V13.5H15ZM22 11C21.877 9.768 21.5459 8.61992 21.0068 7.55575C20.4676 6.49158 19.7763 5.5595 18.9328 4.7595C18.0891 3.9595 17.1214 3.32008 16.0297 2.84125C14.9381 2.36242 13.773 2.09225 12.5345 2.03075L14.277 3.773L13.223 4.827L9.24225 0.846249C9.69358 0.714083 10.1474 0.623334 10.6038 0.574001C11.0603 0.524667 11.5193 0.5 11.9808 0.5C13.4769 0.5 14.892 0.766334 16.226 1.299C17.56 1.83167 18.7437 2.56983 19.777 3.5135C20.8103 4.457 21.6558 5.56917 22.3135 6.85C22.9712 8.13083 23.3667 9.51417 23.5 11H22Z" fill="white"/>
</g>
<defs>
<clipPath id="clip0_907_1283">
<rect width="24" height="24" fill="white"/>
</clipPath>
</defs>
</svg>
