<svg width="24" height="24" viewBox="0 0 24 24" fill="none" xmlns="http://www.w3.org/2000/svg">
<path d="M15.773 12.9731L14.65 11.8501C14.8 11.0219 14.5637 10.2773 13.9412 9.61631C13.3189 8.95548 12.5551 8.70006 11.65 8.85006L10.527 7.72706C10.7526 7.62573 10.984 7.54973 11.2212 7.49906C11.4584 7.4484 11.718 7.42306 12 7.42306C13.1346 7.42306 14.0978 7.8189 14.8895 8.61056C15.6811 9.40223 16.077 10.3654 16.077 11.5001C16.077 11.7821 16.0516 12.0449 16.001 12.2886C15.9503 12.5321 15.8743 12.7602 15.773 12.9731ZM18.9537 16.0846L17.85 15.0501C18.4833 14.5667 19.0458 14.0376 19.5375 13.4626C20.0291 12.8876 20.45 12.2334 20.8 11.5001C19.9666 9.81673 18.7708 8.47923 17.2125 7.48756C15.6541 6.4959 13.9166 6.00006 12 6.00006C11.5166 6.00006 11.0416 6.0334 10.575 6.10006C10.1083 6.16673 9.64995 6.26673 9.19995 6.40006L8.0347 5.23481C8.6667 4.98348 9.3122 4.79823 9.9712 4.67906C10.6302 4.55973 11.3065 4.50006 12 4.50006C14.3435 4.50006 16.4569 5.14623 18.3402 6.43856C20.2235 7.7309 21.5973 9.41806 22.4615 11.5001C22.091 12.3936 21.6125 13.2276 21.026 14.0021C20.4393 14.7764 19.7485 15.4706 18.9537 16.0846ZM19.7615 21.8693L15.7155 17.8538C15.2026 18.0436 14.6343 18.1988 14.0105 18.3193C13.3868 18.4398 12.7166 18.5001 12 18.5001C9.64995 18.5001 7.53654 17.8539 5.6597 16.5616C3.7827 15.2692 2.40895 13.5821 1.53845 11.5001C1.90762 10.6167 2.38454 9.79273 2.9692 9.02806C3.55387 8.26323 4.19745 7.60006 4.89995 7.03856L2.1307 4.23856L3.1847 3.18481L20.8152 20.8153L19.7615 21.8693ZM5.95395 8.09231C5.42562 8.51281 4.91179 9.01831 4.41245 9.60881C3.91312 10.1991 3.50895 10.8296 3.19995 11.5001C4.03329 13.1834 5.22912 14.5209 6.78745 15.5126C8.34579 16.5042 10.0833 17.0001 12 17.0001C12.4551 17.0001 12.9084 16.9616 13.3597 16.8846C13.8109 16.8077 14.1935 16.7283 14.5077 16.6463L13.2422 15.3501C13.0717 15.4192 12.8743 15.4743 12.65 15.5153C12.4256 15.5565 12.209 15.5771 12 15.5771C10.8653 15.5771 9.90212 15.1812 9.11045 14.3896C8.31879 13.5979 7.92295 12.6347 7.92295 11.5001C7.92295 11.2976 7.94354 11.0857 7.9847 10.8646C8.0257 10.6434 8.08079 10.4411 8.14995 10.2578L5.95395 8.09231Z" fill="white"/>
</svg>
