<svg width="24" height="24" viewBox="0 0 24 24" fill="none" xmlns="http://www.w3.org/2000/svg">
<g clip-path="url(#clip0_907_1381)">
<path d="M12.6115 18.8538L5.127 11.3693C4.77567 11.0179 4.6 10.6032 4.6 10.125C4.6 9.64683 4.77567 9.23208 5.127 8.88075L8.88075 5.127C9.23208 4.77567 9.64683 4.6 10.125 4.6C10.6032 4.6 11.0179 4.77567 11.3693 5.127L18.8538 12.6115C19.2051 12.9628 19.3808 13.3776 19.3808 13.8558C19.3808 14.3339 19.2051 14.7487 18.8538 15.1L15.1 18.8538C14.7487 19.2051 14.3339 19.3808 13.8558 19.3808C13.3776 19.3808 12.9628 19.2051 12.6115 18.8538ZM13.6345 17.7693C13.6923 17.8269 13.7661 17.8557 13.8558 17.8557C13.9456 17.8557 14.0193 17.8269 14.077 17.7693L17.7693 14.077C17.8269 14.0193 17.8557 13.9456 17.8557 13.8558C17.8557 13.7661 17.8269 13.6923 17.7693 13.6345L10.3463 6.2115C10.2884 6.15383 10.2147 6.125 10.125 6.125C10.0352 6.125 9.96142 6.15383 9.90375 6.2115L6.2115 9.90375C6.15383 9.96142 6.125 10.0352 6.125 10.125C6.125 10.2147 6.15383 10.2884 6.2115 10.3462L13.6345 17.7693ZM12 23.5C10.4205 23.5 8.93208 23.2003 7.53475 22.601C6.13725 22.0017 4.91508 21.1786 3.86825 20.1318C2.82142 19.0849 1.99833 17.8627 1.399 16.4653C0.799667 15.0679 0.5 13.5795 0.5 12H2C2 13.2603 2.224 14.4578 2.672 15.5922C3.12017 16.7269 3.73525 17.734 4.51725 18.6135C5.29942 19.493 6.227 20.2209 7.3 20.7973C8.37317 21.3734 9.53475 21.7384 10.7848 21.8923L7.74625 18.8538L8.8 17.8L14.2578 23.2577C13.8884 23.3321 13.5147 23.391 13.1365 23.4345C12.7583 23.4782 12.3795 23.5 12 23.5ZM22 12C22 10.7397 21.776 9.54225 21.328 8.40775C20.8798 7.27308 20.2647 6.266 19.4827 5.3865C18.7006 4.507 17.773 3.77908 16.7 3.20275C15.6268 2.62658 14.4653 2.26158 13.2153 2.10775L16.2538 5.14625L15.2 6.2L9.74225 0.74225C10.1051 0.661583 10.4773 0.601 10.8588 0.5605C11.2401 0.520166 11.6205 0.5 12 0.5C13.5858 0.5 15.0759 0.799667 16.4703 1.399C17.8644 1.99833 19.0849 2.82142 20.1318 3.86825C21.1786 4.91508 22.0017 6.13558 22.601 7.52975C23.2003 8.92408 23.5 10.4142 23.5 12H22Z" fill="white"/>
</g>
<defs>
<clipPath id="clip0_907_1381">
<rect width="24" height="24" fill="white"/>
</clipPath>
</defs>
</svg>
