<svg width="65" height="65" viewBox="0 0 65 65" fill="none" xmlns="http://www.w3.org/2000/svg">
<path d="M28.5667 42.8387L45.6387 25.7667L44.0587 24.2027L28.5667 39.746L20.772 31.9513L19.2587 33.5153L28.5667 42.8387ZM32.5087 56.5C29.2002 56.5 26.0938 55.8702 23.1893 54.6107C20.2849 53.3511 17.7409 51.6307 15.5573 49.4493C13.3738 47.268 11.6518 44.7264 10.3913 41.8247C9.13044 38.9229 8.5 35.8176 8.5 32.5087C8.5 29.19 9.12978 26.0698 10.3893 23.148C11.6489 20.2267 13.3693 17.6853 15.5507 15.524C17.732 13.3627 20.2736 11.6518 23.1753 10.3913C26.0771 9.13044 29.1824 8.5 32.4913 8.5C35.81 8.5 38.9302 9.12978 41.852 10.3893C44.7733 11.6489 47.3147 13.3582 49.476 15.5173C51.6373 17.6764 53.3482 20.2156 54.6087 23.1347C55.8696 26.0533 56.5 29.1722 56.5 32.4913C56.5 35.7998 55.8702 38.9062 54.6107 41.8107C53.3511 44.7151 51.6418 47.2591 49.4827 49.4427C47.3236 51.6262 44.7844 53.3482 41.8653 54.6087C38.9467 55.8696 35.8278 56.5 32.5087 56.5ZM32.5 54.4487C38.6058 54.4487 43.7904 52.3144 48.054 48.046C52.3171 43.7776 54.4487 38.5956 54.4487 32.5C54.4487 26.3942 52.3171 21.2096 48.054 16.946C43.7904 12.6829 38.6058 10.5513 32.5 10.5513C26.4044 10.5513 21.2224 12.6829 16.954 16.946C12.6856 21.2096 10.5513 26.3942 10.5513 32.5C10.5513 38.5956 12.6856 43.7776 16.954 48.046C21.2224 52.3144 26.4044 54.4487 32.5 54.4487Z" fill="white"/>
</svg>
