<svg width="65" height="65" viewBox="0 0 65 65" fill="none" xmlns="http://www.w3.org/2000/svg">
<path d="M14.3358 51.1462C12.8897 49.218 11.7777 47.1111 10.9999 44.8256C10.2221 42.5402 9.83325 40.1137 9.83325 37.5462C9.83325 31.2214 12.0298 25.8641 16.423 21.4744C20.8161 17.0846 26.1751 14.8898 32.4999 14.8898C33.3615 14.8898 34.1022 14.8972 34.7221 14.912C35.3421 14.9268 36.0646 14.9376 36.8897 14.9444L30.8931 8.9479L32.4487 7.3923L41.2692 16.2128L32.4487 25.0334L30.8264 23.4111L37.0162 17.2214C36.182 17.2077 35.4185 17.1917 34.7256 17.1735C34.0327 17.1553 33.2908 17.1462 32.4999 17.1462C26.8612 17.1462 22.0498 19.1365 18.0657 23.1171C14.0817 27.0977 12.0897 31.9074 12.0897 37.5462C12.0897 39.7445 12.4239 41.8784 13.0923 43.9479C13.7606 46.0174 14.733 47.8761 16.0093 49.524L14.3358 51.1462ZM50.664 51.1462L49.035 49.5342C50.2316 47.9228 51.1766 46.0949 51.87 44.0504C52.5634 42.006 52.9102 39.8379 52.9102 37.5462C52.9102 34.6812 52.3589 31.9801 51.2563 29.4428C50.1538 26.9054 48.5746 24.6772 46.5187 22.7581L48.1512 21.1256C50.3529 23.2111 52.0726 25.6496 53.3102 28.441C54.5478 31.2325 55.1666 34.2675 55.1666 37.5462C55.1666 40.1137 54.7777 42.5402 53.9999 44.8256C53.2221 47.1111 52.1102 49.218 50.664 51.1462Z" fill="white"/>
<path d="M31.7711 45.1045L37.8333 39.0422L36.58 37.8067L31.8244 42.5622L29.2822 40.02L27.9933 41.3089L31.7711 45.1045ZM32.9266 52.1267C30.4437 51.5044 28.4007 50.0689 26.7978 47.82C25.1948 45.5711 24.3933 43.0956 24.3933 40.3933V33.9933L32.9266 30.7933L41.46 33.9933V40.3933C41.46 43.0956 40.6585 45.5711 39.0555 47.82C37.4526 50.0689 35.4096 51.5044 32.9266 52.1267ZM32.9266 50.2778C34.9059 49.6319 36.5267 48.3904 37.7889 46.5534C39.0511 44.7163 39.6822 42.663 39.6822 40.3933V35.2289L32.9266 32.6867L26.1711 35.2289V40.3933C26.1711 42.663 26.8022 44.7163 28.0644 46.5534C29.3266 48.3904 30.9474 49.6319 32.9266 50.2778Z" fill="white"/>
</svg>
