<svg width="65" height="64" viewBox="0 0 65 64" fill="none" xmlns="http://www.w3.org/2000/svg">
<path d="M32.5001 52.2051L4.29492 24C8.12399 20.6473 12.4231 18.0313 17.1923 16.1521C21.9616 14.2729 27.0641 13.3333 32.5001 13.3333C37.9394 13.3333 43.038 14.2729 47.7958 16.1521C52.5536 18.0313 56.8568 20.6473 60.7052 24L32.5001 52.2051ZM19.8932 36.4633C21.6983 35.1254 23.659 34.0795 25.7753 33.3257C27.8915 32.5718 30.1331 32.1949 32.5001 32.1949C34.867 32.1949 37.1086 32.5718 39.2249 33.3257C41.3411 34.0795 43.3018 35.1254 45.1069 36.4633L57.3275 24.2085C53.7308 21.4792 49.8485 19.3604 45.6804 17.8521C41.5123 16.3439 37.1189 15.5897 32.5001 15.5897C27.8813 15.5897 23.4878 16.3439 19.3197 17.8521C15.1516 19.3604 11.2693 21.4792 7.67266 24.2085L19.8932 36.4633Z" fill="#D19D36"/>
</svg>
