<svg width="252" height="46" viewBox="0 0 252 46" fill="none" xmlns="http://www.w3.org/2000/svg">
<mask id="mask0_1262_1593" style="mask-type:luminance" maskUnits="userSpaceOnUse" x="0" y="0" width="252" height="46">
<path d="M252 0.203125H0V45.7966H252V0.203125Z" fill="white"/>
</mask>
<g mask="url(#mask0_1262_1593)">
<path d="M53.2289 43.3247C53.1877 43.3796 53.1328 43.4208 53.0916 43.4758C53.1465 43.4346 53.1877 43.3796 53.2289 43.3247Z" fill="#4FA1CA"/>
<path d="M41.4323 43.2836C41.4048 43.2561 41.3773 43.2286 41.3499 43.2012C41.3773 43.2149 41.4048 43.2424 41.4323 43.2836Z" fill="#4FA1CA"/>
<path d="M51.8557 44.4918C52.1579 44.2858 52.4462 44.066 52.7209 43.8188C51.2789 45.0823 49.4387 45.7964 47.5161 45.8376C49.0679 45.8101 50.5786 45.3432 51.8557 44.4918Z" fill="#4FA1CA"/>
<path d="M52.9818 43.5854C52.9131 43.6541 52.8445 43.709 52.7896 43.7777C52.8582 43.709 52.9269 43.6404 52.9818 43.5854Z" fill="#4FA1CA"/>
<path d="M41.1988 43.0226C41.1576 42.9677 41.1164 42.9265 41.0752 42.8716C41.1164 42.9128 41.1576 42.9677 41.1988 43.0226Z" fill="#4FA1CA"/>
<path d="M22.522 2.09839C22.5494 2.08466 22.5769 2.05719 22.5906 2.04346L22.522 2.09839Z" fill="#4FA1CA"/>
<path d="M32.2176 1.57651C29.2787 -0.373574 25.4198 -0.208779 22.6594 1.9885L22.5908 2.04343C22.5633 2.05717 22.5359 2.08463 22.5221 2.09836C19.3773 4.76256 18.7181 9.36311 20.9978 12.8101L27.7406 22.9313L34.4698 12.8238C36.9417 9.10218 35.9392 4.07591 32.2176 1.57651Z" fill="#5AC0FF"/>
<path d="M53.3801 43.1733C53.3251 43.2283 53.2839 43.2832 53.229 43.3244L53.3801 43.1733Z" fill="#2952A3"/>
<path d="M53.0916 43.4756C53.0504 43.5168 53.0229 43.5442 52.9817 43.5854L53.0916 43.4756Z" fill="#2952A3"/>
<path d="M53.6547 42.8579C53.5997 42.9266 53.5311 43.009 53.4624 43.0776C53.5311 42.9952 53.5997 42.9266 53.6547 42.8579Z" fill="#2952A3"/>
<path d="M71.4801 1.56268C67.7447 -0.909257 62.7185 0.0932491 60.2328 3.81488L47.365 23.1097L54.1079 33.2446C56.058 36.1972 55.8794 40.0699 53.6684 42.8302C53.8195 42.638 53.9705 42.4457 54.1079 42.2397L73.7186 12.81C76.1905 9.07461 75.188 4.04834 71.4801 1.56268Z" fill="#007BFF"/>
<path d="M42.8605 44.492C44.1651 45.3709 45.7032 45.8378 47.2688 45.8516C45.1814 45.8241 43.1763 45.0001 41.6794 43.5444C42.0365 43.8878 42.4348 44.2036 42.8605 44.492Z" fill="#2952A3"/>
<path d="M54.1078 33.2311L47.3512 23.0962L40.5946 33.2311C38.6582 36.1562 38.8093 40.0015 40.9791 42.7618L41.0615 42.8717C41.1027 42.9266 41.1439 42.9678 41.1851 43.0227L41.3362 43.1875C41.3636 43.215 41.3911 43.2425 41.4186 43.2699C41.4872 43.3386 41.5559 43.421 41.6245 43.4897L41.6657 43.5309C43.1626 44.9865 45.1677 45.8243 47.2551 45.838H47.3237H47.516C49.4386 45.7968 51.2788 45.0827 52.7208 43.8055L52.7757 43.7506C52.8444 43.6956 52.913 43.627 52.968 43.5583C53.0092 43.5171 53.0366 43.4897 53.0778 43.4485C53.119 43.4073 53.174 43.3523 53.2152 43.2974C53.2564 43.2425 53.3113 43.1875 53.3662 43.1463L53.4486 43.0502C53.5173 42.9815 53.5722 42.8991 53.6409 42.8305L53.6684 42.803C55.8931 40.0564 56.0579 36.1837 54.1078 33.2311Z" fill="#4FA1CA"/>
<path d="M54.1078 33.2311L47.3512 23.0962L40.5946 33.2311C38.6582 36.1562 38.8093 40.0015 40.9791 42.7618L41.0615 42.8717C41.1027 42.9266 41.1439 42.9678 41.1851 43.0227L41.3362 43.1875C41.3636 43.215 41.3911 43.2425 41.4186 43.2699C41.4872 43.3386 41.5559 43.421 41.6245 43.4897L41.6657 43.5309C43.1626 44.9865 45.1677 45.8243 47.2551 45.838H47.3237H47.516C49.4386 45.7968 51.2788 45.0827 52.7208 43.8055L52.7757 43.7506C52.8444 43.6956 52.913 43.627 52.968 43.5583C53.0092 43.5171 53.0366 43.4897 53.0778 43.4485C53.119 43.4073 53.174 43.3523 53.2152 43.2974C53.2564 43.2425 53.3113 43.1875 53.3662 43.1463L53.4486 43.0502C53.5173 42.9815 53.5722 42.8991 53.6409 42.8305L53.6684 42.803C55.8931 40.0564 56.0579 36.1837 54.1078 33.2311Z" fill="#1D94FF"/>
<path d="M34.7994 4.32312C34.7032 4.14459 34.5797 3.96607 34.4561 3.80127L34.7994 4.32312Z" fill="#4FA1CA"/>
<path d="M22.522 2.09814C21.9178 2.59253 21.3959 3.18305 20.9702 3.8285L1.35955 33.2583C-1.11238 36.9936 -0.109876 42.0199 3.61175 44.5056C7.34712 46.9775 12.3734 45.975 14.859 42.2534L27.7406 22.9311L20.9977 12.8099C18.718 9.36289 19.3772 4.76234 22.522 2.09814Z" fill="#7BE0FF"/>
<path d="M40.6083 33.2311L47.3649 23.0962L34.7992 4.32324C34.9366 4.58417 35.0739 4.85883 35.17 5.14722C35.8292 6.89131 36.2687 9.85763 34.6482 12.5356L34.6344 12.5768C34.5795 12.6592 34.5246 12.7416 34.4696 12.824L27.7405 22.9314L40.6083 42.24C40.7319 42.4185 40.8555 42.597 40.9928 42.7756C38.823 40.0015 38.6719 36.17 40.6083 33.2311Z" fill="#54A6FF"/>
<path d="M94.4966 16.3394C92.9173 15.3507 91.0909 14.8288 89.2232 14.8425C87.4104 14.9112 85.6389 15.4743 84.1145 16.463C82.5764 17.4655 81.8074 19.4294 81.8074 22.3819V32.5306H84.087C85.3367 32.5306 86.353 31.5144 86.353 30.2647V21.4756C86.353 20.4319 86.6551 19.6766 87.2594 19.1959C87.8499 18.729 88.5915 18.4681 89.3468 18.4818C90.1158 18.4818 90.8574 18.729 91.4616 19.1959C92.0934 19.6766 92.4092 20.4319 92.4092 21.4756V30.3196C92.3543 31.4869 93.2607 32.4757 94.428 32.5306C94.4966 32.5306 94.5516 32.5306 94.6202 32.5306H96.8999V22.3819C96.8999 19.3607 96.1034 17.342 94.4966 16.3394Z" fill="#007BFF"/>
<path d="M110.386 15.3642C108.957 14.8423 107.351 14.705 105.579 14.9384C103.808 15.1719 102.352 15.9409 101.226 17.2456C100.498 18.0833 99.9761 19.0858 99.7014 20.1707C99.3856 21.3105 99.2208 22.4916 99.207 23.6863C99.207 25.0871 99.3993 26.4741 99.7975 27.82C100.182 29.1383 100.841 30.1958 101.748 30.9785C102.613 31.7613 103.78 32.3106 105.222 32.6402C106.65 32.9698 108.133 32.9286 109.548 32.5441C111.155 32.2008 112.473 31.3081 113.517 29.8799C114.039 29.0971 114.423 28.2457 114.684 27.3393C114.986 26.3368 115.137 25.1558 115.137 23.7687C115.137 21.8599 114.766 20.1844 114.039 18.7562C113.311 17.2044 112.006 15.9821 110.386 15.3642ZM109.878 27.6002C109.356 28.383 108.765 28.8637 108.092 29.0559C107.447 29.2482 106.746 29.2345 106.101 28.9873C105.456 28.7538 105.002 28.4517 104.741 28.1084C104.096 27.3256 103.725 25.9523 103.629 23.9747C103.547 21.9972 103.959 20.514 104.865 19.5252C105.167 19.2231 105.648 18.9759 106.293 18.7837C106.925 18.5914 107.612 18.6051 108.243 18.8111C108.889 19.0309 109.466 19.5252 109.974 20.308C110.482 21.0908 110.715 22.2581 110.715 23.8237C110.674 25.554 110.386 26.8175 109.878 27.6002Z" fill="#007BFF"/>
<path d="M126.934 16.7925L123.871 27.4081L120.946 17.0535C120.644 15.9823 119.655 15.2407 118.543 15.2407H115.618L121.66 32.5443H126.275L132.386 15.2407H129.008C127.978 15.2407 127.277 15.7626 126.934 16.7925Z" fill="#007BFF"/>
<path d="M144.223 15.3642C142.795 14.8423 141.189 14.705 139.417 14.9384C137.645 15.1719 136.19 15.9409 135.064 17.2456C134.336 18.097 133.814 19.0858 133.539 20.1707C133.223 21.3105 133.059 22.4916 133.059 23.6863C133.059 25.0871 133.251 26.4741 133.649 27.82C134.034 29.1383 134.693 30.1958 135.599 30.9785C136.464 31.7613 137.632 32.3106 139.074 32.6402C140.502 32.9698 141.985 32.9286 143.4 32.5441C145.006 32.2008 146.325 31.3081 147.368 29.8799C147.89 29.0971 148.275 28.2457 148.536 27.3393C148.838 26.3368 148.989 25.1558 148.989 23.7687C148.989 21.8599 148.618 20.1844 147.89 18.7562C147.149 17.1906 145.83 15.9821 144.223 15.3642ZM143.702 27.6002C143.18 28.383 142.589 28.8637 141.916 29.0559C141.271 29.2482 140.571 29.2345 139.939 28.9873C139.293 28.7538 138.826 28.4517 138.566 28.1084C137.92 27.3256 137.549 25.9523 137.467 23.9747C137.384 21.9972 137.796 20.514 138.703 19.5252C139.005 19.2231 139.486 18.9759 140.131 18.7837C140.763 18.5914 141.449 18.6051 142.081 18.8111C142.727 19.0309 143.303 19.5252 143.811 20.308C144.32 21.0908 144.553 22.2581 144.553 23.8237C144.498 25.554 144.223 26.8175 143.702 27.6002Z" fill="#007BFF"/>
<path d="M232.292 15.6752H234.587C235.177 15.6752 235.661 15.8901 236.023 16.3062C236.386 16.7359 236.534 17.2461 236.439 17.8369L234.372 32.6192H229.916L232.292 15.6752ZM232.989 10.7075H235.286C235.876 10.7075 236.36 10.9223 236.721 11.3386C237.083 11.7682 237.232 12.2784 237.137 12.8691L236.95 14.2118H232.494L232.989 10.7075Z" fill="#7BE0FF"/>
<path d="M220.225 25.8385L220.48 23.9856C220.641 22.8444 221.299 22.2671 222.44 22.2671H229.514L229.016 25.8385H220.225Z" fill="#7BE0FF"/>
<path d="M214.815 27.302H217.996C217.284 29.0877 216.198 30.4439 214.748 31.3836C213.298 32.3637 211.567 32.8471 209.566 32.8471C207.151 32.8471 205.365 32.055 204.224 30.4841C203.083 28.9534 202.708 26.7651 203.111 23.9186C203.485 21.2065 204.452 19.0717 205.982 17.5412C207.567 15.9837 209.566 15.2051 211.983 15.2051C214.534 15.2051 216.399 15.9703 217.58 17.501C218.721 19.0717 219.097 21.2602 218.695 24.0663C218.667 24.2408 218.653 24.3886 218.627 24.5094C218.614 24.6303 218.6 24.7242 218.586 24.7645C218.56 24.9794 218.52 25.127 218.465 25.2076H207.446C207.298 26.5234 207.486 27.5035 207.997 28.1345C208.453 28.8193 209.231 29.1549 210.331 29.1549C211.056 29.1549 211.688 29.0073 212.237 28.7119C212.372 28.6715 212.493 28.6045 212.586 28.5239C212.735 28.403 212.882 28.2687 213.016 28.1479C213.07 28.0271 213.244 27.8526 213.539 27.6377C213.876 27.4094 214.304 27.302 214.815 27.302ZM207.862 22.3344H214.359C214.439 21.1931 214.251 20.3338 213.822 19.7834C213.353 19.1926 212.614 18.8972 211.593 18.8972C210.654 18.8972 209.848 19.1926 209.178 19.7834C208.492 20.3875 208.063 21.2334 207.862 22.3344Z" fill="#7BE0FF"/>
<path d="M199.205 10.5464H201.365C201.956 10.5464 202.439 10.7746 202.801 11.2446C203.164 11.6742 203.311 12.1575 203.231 12.708L201.486 25.1407C201.056 28.1616 199.902 30.2024 198.01 31.263C196.116 32.3238 194.157 32.8607 192.117 32.8607C191.016 32.8607 189.956 32.6863 188.935 32.3506C187.929 31.9747 187.164 31.3704 186.641 30.5649C185.634 28.9941 185.311 26.8458 185.701 24.1337C186.076 21.462 186.989 19.3137 188.452 17.7026C189.969 16.0242 191.715 15.2054 193.714 15.2054C194.775 15.2054 195.674 15.4201 196.425 15.8364C197.204 16.3466 197.794 17.0044 198.184 17.8099L199.205 10.5464ZM190.063 23.9324C189.821 25.6375 189.956 26.9264 190.479 27.826C190.99 28.7121 191.834 29.1686 193.029 29.1686C194.17 29.1686 195.137 28.7255 195.888 27.826C196.613 26.9398 197.083 25.6375 197.325 23.9324C197.54 22.4017 197.392 21.1933 196.883 20.2938C196.318 19.448 195.472 19.0183 194.319 19.0183C193.217 19.0183 192.278 19.4615 191.513 20.361C190.762 21.2068 190.278 22.4017 190.063 23.9324Z" fill="#7BE0FF"/>
<path d="M180.251 23.9858C179.62 24.2812 178.748 24.5631 177.647 24.8182C176.64 25.0331 176.143 25.1405 176.143 25.1405C175.352 25.3553 174.762 25.6237 174.372 25.9728C174.009 26.4428 173.795 26.9127 173.728 27.3692C173.634 28.0002 173.755 28.5104 174.09 28.8997C174.425 29.2355 174.95 29.41 175.673 29.41C176.868 29.41 177.849 29.0743 178.627 28.3896C179.406 27.7048 179.876 26.7784 180.036 25.5835L180.251 23.9858ZM180.171 31.8266C179.218 32.2966 178.224 32.5652 177.191 32.6591C176.198 32.7934 175.311 32.8471 174.546 32.8471C173.016 32.8471 171.742 32.4443 170.708 31.6388C169.674 30.7928 169.299 29.4101 169.566 27.5035C169.822 25.7178 170.506 24.4423 171.633 23.6769C172.802 22.9117 174.211 22.4014 175.862 22.1464C176.077 22.1464 176.331 22.1195 176.64 22.0793C176.949 21.9986 177.298 21.9316 177.687 21.8912C179.593 21.6362 180.6 21.0857 180.72 20.2399C180.815 19.6088 180.534 19.1926 179.876 19.0315C179.272 18.8167 178.695 18.7093 178.13 18.7093C177.54 18.7093 176.989 18.7898 176.506 18.9643C176.01 19.1389 175.634 19.4477 175.352 19.9177H171.084C171.433 18.6019 172.184 17.5143 173.325 16.6685C174.613 15.6883 176.319 15.2051 178.439 15.2051C180.815 15.2051 182.547 15.6079 183.621 16.4134C184.735 17.2593 185.177 18.4542 184.962 19.9847L184.144 25.785C183.902 27.49 183.393 28.8193 182.626 29.7994C181.903 30.7258 181.083 31.4105 180.171 31.8266Z" fill="#7BE0FF"/>
<path d="M156.855 12.8018C156.936 12.2244 156.788 11.674 156.425 11.2712C156.104 10.8684 155.607 10.6401 155.056 10.6401H152.775L152.076 15.5944H149.862L149.433 18.6422H151.648L150.144 29.3295C149.875 31.2763 150.546 32.3235 152.144 32.4444C153.647 32.5652 155.151 32.592 156.681 32.5115L156.962 30.5378C157.07 29.7994 156.546 29.2086 155.809 29.2086C154.963 29.2086 154.587 28.8461 154.681 28.1211L156.009 18.7094H156.453C157.016 18.7227 157.594 18.5079 158.064 18.1051C158.546 17.7023 158.855 17.1384 158.908 16.5476L159.029 15.6749H156.439L156.855 12.8018Z" fill="#7BE0FF"/>
<path d="M169.822 15.6079H169.499C168.372 15.6079 167.218 15.7555 166.091 16.0509C165.017 16.3194 163.996 16.8028 163.057 17.4473C162.077 18.1723 161.258 19.0987 160.681 20.146C160.036 21.2737 159.607 22.6566 159.366 24.308L158.211 32.5115H162.667L163.902 23.7978C164.076 22.5223 164.506 21.5959 165.177 21.0052C165.849 20.4144 166.802 20.1191 168.037 20.1191C168.841 20.1191 169.594 19.4612 169.701 18.6557L170.131 15.6079H169.822Z" fill="#7BE0FF"/>
<path d="M250.292 16.7626C248.883 15.7958 247.165 15.2856 245.338 15.2991C243.553 15.3662 241.755 15.9167 240.117 16.8833C238.48 17.8634 237.459 19.7835 237.057 22.6701L235.66 32.5921H237.889C239.11 32.5921 240.238 31.5985 240.412 30.3768L241.621 21.7839C241.769 20.7636 242.157 20.0252 242.815 19.5552C243.459 19.0987 244.211 18.8436 244.949 18.857C245.701 18.857 246.386 19.0987 246.923 19.5552C247.474 20.0252 247.674 20.7636 247.539 21.7839L246.319 30.4305C246.104 31.5717 246.856 32.5384 247.983 32.5921C248.05 32.5921 248.104 32.5921 248.171 32.5921H250.399L251.795 22.6701C252.225 19.7163 251.714 17.7426 250.292 16.7626Z" fill="#7BE0FF"/>
<path d="M250.931 43.1769V42.4271L250.86 42.2628V40.9203C250.86 40.6823 250.786 40.4966 250.638 40.3633C250.495 40.2299 250.274 40.1633 249.974 40.1633C249.77 40.1633 249.566 40.1967 249.367 40.2633C249.172 40.3252 249.005 40.4109 248.867 40.5204L248.468 39.742C248.677 39.5944 248.929 39.4801 249.224 39.3992C249.52 39.3183 249.819 39.2778 250.124 39.2778C250.709 39.2778 251.165 39.4158 251.488 39.692C251.812 39.9682 251.974 40.399 251.974 40.9846V43.1769H250.931ZM249.76 43.234C249.459 43.234 249.202 43.184 248.988 43.0841C248.774 42.9793 248.611 42.8389 248.495 42.6627C248.381 42.4865 248.325 42.2891 248.325 42.07C248.325 41.8415 248.38 41.6415 248.488 41.4702C248.602 41.2988 248.781 41.1654 249.024 41.0703C249.267 40.9703 249.584 40.9203 249.974 40.9203H250.995V41.5701H250.095C249.834 41.5701 249.653 41.613 249.553 41.6987C249.458 41.7844 249.41 41.8915 249.41 42.02C249.41 42.1629 249.465 42.2771 249.575 42.3628C249.689 42.4437 249.844 42.4842 250.039 42.4842C250.224 42.4842 250.39 42.4414 250.539 42.3557C250.686 42.2652 250.793 42.1343 250.86 41.9629L251.03 42.4771C250.951 42.7247 250.802 42.9127 250.588 43.0412C250.374 43.1698 250.098 43.234 249.76 43.234Z" fill="white"/>
<path d="M245.669 43.2342C245.217 43.2342 244.864 43.12 244.612 42.8914C244.36 42.6581 244.234 42.313 244.234 41.856V38.4854H245.348V41.8417C245.348 42.0036 245.39 42.1297 245.477 42.2202C245.562 42.3059 245.679 42.3487 245.826 42.3487C246.003 42.3487 246.152 42.3011 246.276 42.2059L246.575 42.9914C246.461 43.0723 246.324 43.1342 246.162 43.1771C246.004 43.2151 245.841 43.2342 245.669 43.2342ZM243.641 40.2778V39.4208H246.305V40.2778H243.641Z" fill="white"/>
<path d="M240.674 43.1769V42.4271L240.603 42.2628V40.9203C240.603 40.6823 240.529 40.4966 240.38 40.3633C240.238 40.2299 240.017 40.1633 239.717 40.1633C239.513 40.1633 239.309 40.1967 239.11 40.2633C238.915 40.3252 238.748 40.4109 238.61 40.5204L238.211 39.742C238.419 39.5944 238.672 39.4801 238.967 39.3992C239.263 39.3183 239.562 39.2778 239.867 39.2778C240.452 39.2778 240.906 39.4158 241.231 39.692C241.555 39.9682 241.717 40.399 241.717 40.9846V43.1769H240.674ZM239.503 43.234C239.202 43.234 238.945 43.184 238.731 43.0841C238.517 42.9793 238.354 42.8389 238.238 42.6627C238.124 42.4865 238.068 42.2891 238.068 42.07C238.068 41.8415 238.121 41.6415 238.231 41.4702C238.345 41.2988 238.524 41.1654 238.767 41.0703C239.01 40.9703 239.326 40.9203 239.717 40.9203H240.738V41.5701H239.838C239.576 41.5701 239.396 41.613 239.296 41.6987C239.201 41.7844 239.153 41.8915 239.153 42.02C239.153 42.1629 239.208 42.2771 239.318 42.3628C239.432 42.4437 239.585 42.4842 239.782 42.4842C239.967 42.4842 240.133 42.4414 240.282 42.3557C240.429 42.2652 240.536 42.1343 240.603 41.9629L240.773 42.4771C240.692 42.7247 240.545 42.9127 240.331 43.0412C240.117 43.1698 239.841 43.234 239.503 43.234Z" fill="white"/>
<path d="M231.123 43.177V38.1782H233.393C233.936 38.1782 234.415 38.283 234.828 38.4924C235.243 38.6972 235.567 38.9852 235.801 39.3565C236.034 39.7279 236.149 40.1683 236.149 40.6776C236.149 41.1823 236.034 41.6226 235.801 41.9987C235.567 42.3701 235.243 42.6605 234.828 42.87C234.415 43.0747 233.936 43.177 233.393 43.177H231.123ZM232.279 42.2273H233.337C233.669 42.2273 233.958 42.1653 234.201 42.0416C234.448 41.913 234.639 41.7322 234.772 41.4989C234.909 41.2655 234.979 40.9918 234.979 40.6776C234.979 40.3586 234.909 40.0849 234.772 39.8564C234.639 39.6231 234.448 39.4445 234.201 39.3208C233.958 39.1923 233.669 39.128 233.337 39.128H232.279V42.2273Z" fill="white"/>
<path d="M224.743 43.2342C224.291 43.2342 223.938 43.12 223.685 42.8914C223.434 42.6581 223.308 42.313 223.308 41.856V38.4854H224.421V41.8417C224.421 42.0036 224.464 42.1297 224.55 42.2202C224.636 42.3059 224.752 42.3487 224.899 42.3487C225.076 42.3487 225.226 42.3011 225.35 42.2059L225.649 42.9914C225.535 43.0723 225.398 43.1342 225.236 43.1771C225.078 43.2151 224.914 43.2342 224.743 43.2342ZM222.714 40.2778V39.4208H225.379V40.2778H222.714Z" fill="white"/>
<path d="M219.2 43.234C218.762 43.234 218.376 43.1483 218.044 42.9769C217.714 42.8056 217.46 42.5722 217.279 42.2771C217.098 41.9772 217.008 41.6367 217.008 41.2559C217.008 40.8703 217.096 40.5299 217.272 40.2347C217.453 39.9348 217.698 39.7015 218.008 39.5349C218.317 39.3635 218.667 39.2778 219.057 39.2778C219.434 39.2778 219.771 39.3587 220.071 39.5206C220.376 39.6777 220.616 39.9062 220.793 40.2062C220.969 40.5013 221.057 40.856 221.057 41.2702C221.057 41.3131 221.054 41.363 221.05 41.4202C221.044 41.4725 221.04 41.5225 221.035 41.5701H217.915V40.9203H220.45L220.021 41.1131C220.021 40.9132 219.981 40.7394 219.9 40.5918C219.819 40.4442 219.707 40.3299 219.564 40.249C219.421 40.1633 219.255 40.1205 219.064 40.1205C218.875 40.1205 218.704 40.1633 218.557 40.249C218.415 40.3299 218.303 40.4466 218.222 40.5989C218.141 40.7466 218.1 40.9226 218.1 41.1274V41.2988C218.1 41.5082 218.145 41.6939 218.236 41.8558C218.331 42.0129 218.463 42.1343 218.629 42.22C218.8 42.3009 219 42.3414 219.229 42.3414C219.434 42.3414 219.612 42.3105 219.765 42.2485C219.921 42.1866 220.064 42.0938 220.193 41.97L220.785 42.6127C220.609 42.8127 220.388 42.9675 220.122 43.0769C219.855 43.1817 219.548 43.234 219.2 43.234Z" fill="white"/>
<path d="M212.287 42.3911L212.316 41.0343L214.108 39.3347H215.437L213.715 41.0843L213.137 41.5556L212.287 42.3911ZM211.367 43.1767V37.8779H212.481V43.1767H211.367ZM214.23 43.1767L212.93 41.5628L213.63 40.6987L215.58 43.1767H214.23Z" fill="white"/>
<path d="M206.938 43.1769V39.335H208.002V40.4204L207.853 40.1062C207.967 39.8348 208.151 39.6301 208.402 39.4921C208.655 39.3492 208.962 39.2778 209.323 39.2778V40.3062C209.275 40.3013 209.233 40.299 209.196 40.299C209.157 40.2942 209.116 40.2919 209.073 40.2919C208.769 40.2919 208.521 40.3799 208.331 40.5561C208.145 40.7275 208.053 40.9965 208.053 41.363V43.1769H206.938Z" fill="white"/>
<path d="M203.514 43.1769V42.4271L203.443 42.2628V40.9203C203.443 40.6823 203.369 40.4966 203.222 40.3633C203.079 40.2299 202.858 40.1633 202.557 40.1633C202.352 40.1633 202.151 40.1967 201.95 40.2633C201.755 40.3252 201.589 40.4109 201.45 40.5204L201.051 39.742C201.259 39.5944 201.512 39.4801 201.807 39.3992C202.102 39.3183 202.402 39.2778 202.707 39.2778C203.293 39.2778 203.748 39.4158 204.072 39.692C204.395 39.9682 204.557 40.399 204.557 40.9846V43.1769H203.514ZM202.343 43.234C202.043 43.234 201.787 43.184 201.572 43.0841C201.358 42.9793 201.193 42.8389 201.079 42.6627C200.965 42.4865 200.908 42.2891 200.908 42.07C200.908 41.8415 200.963 41.6415 201.073 41.4702C201.187 41.2988 201.365 41.1654 201.608 41.0703C201.85 40.9703 202.167 40.9203 202.557 40.9203H203.579V41.5701H202.679C202.417 41.5701 202.236 41.613 202.135 41.6987C202.041 41.7844 201.993 41.8915 201.993 42.02C201.993 42.1629 202.048 42.2771 202.157 42.3628C202.271 42.4437 202.427 42.4842 202.622 42.4842C202.807 42.4842 202.973 42.4414 203.121 42.3557C203.268 42.2652 203.376 42.1343 203.443 41.9629L203.614 42.4771C203.533 42.7247 203.385 42.9127 203.171 43.0412C202.957 43.1698 202.681 43.234 202.343 43.234Z" fill="white"/>
<path d="M193.043 43.177V38.1782H194L196.127 41.706H195.621L197.714 38.1782H198.663L198.678 43.177H197.591L197.584 39.8421H197.785L196.114 42.6486H195.592L193.885 39.8421H194.128V43.177H193.043Z" fill="white"/>
<path d="M185.597 43.234C185.159 43.234 184.773 43.1483 184.439 42.9769C184.111 42.8056 183.857 42.5722 183.676 42.2771C183.494 41.9772 183.404 41.6367 183.404 41.2559C183.404 40.8703 183.493 40.5299 183.669 40.2347C183.85 39.9348 184.095 39.7015 184.404 39.5349C184.714 39.3635 185.064 39.2778 185.454 39.2778C185.83 39.2778 186.168 39.3587 186.468 39.5206C186.773 39.6777 187.013 39.9062 187.189 40.2062C187.366 40.5013 187.454 40.856 187.454 41.2702C187.454 41.3131 187.451 41.363 187.447 41.4202C187.441 41.4725 187.437 41.5225 187.432 41.5701H184.312V40.9203H186.847L186.418 41.1131C186.418 40.9132 186.377 40.7394 186.296 40.5918C186.216 40.4442 186.104 40.3299 185.961 40.249C185.818 40.1633 185.652 40.1205 185.461 40.1205C185.27 40.1205 185.101 40.1633 184.954 40.249C184.811 40.3299 184.699 40.4466 184.618 40.5989C184.538 40.7466 184.497 40.9226 184.497 41.1274V41.2988C184.497 41.5082 184.542 41.6939 184.633 41.8558C184.728 42.0129 184.86 42.1343 185.026 42.22C185.197 42.3009 185.396 42.3414 185.626 42.3414C185.83 42.3414 186.009 42.3105 186.161 42.2485C186.318 42.1866 186.461 42.0938 186.59 41.97L187.182 42.6127C187.006 42.8127 186.785 42.9675 186.518 43.0769C186.252 43.1817 185.944 43.234 185.597 43.234Z" fill="white"/>
<path d="M179.815 43.234C179.487 43.234 179.17 43.196 178.866 43.1198C178.566 43.0389 178.328 42.9389 178.152 42.8198L178.523 42.02C178.699 42.1295 178.906 42.22 179.144 42.2914C179.387 42.358 179.625 42.3914 179.858 42.3914C180.116 42.3914 180.296 42.3605 180.402 42.2985C180.51 42.2366 180.565 42.1509 180.565 42.0415C180.565 41.951 180.523 41.8843 180.438 41.8415C180.356 41.7938 180.247 41.7581 180.108 41.7344C179.971 41.7106 179.818 41.6867 179.652 41.663C179.49 41.6392 179.325 41.6082 179.159 41.5701C178.991 41.5273 178.839 41.4654 178.702 41.3845C178.563 41.3036 178.452 41.194 178.367 41.056C178.286 40.918 178.244 40.7394 178.244 40.5204C178.244 40.2776 178.313 40.0634 178.452 39.8777C178.595 39.692 178.799 39.5469 179.066 39.4421C179.332 39.3326 179.652 39.2778 180.023 39.2778C180.285 39.2778 180.551 39.3064 180.822 39.3635C181.094 39.4207 181.321 39.504 181.5 39.6135L181.13 40.4061C180.944 40.2967 180.756 40.2228 180.565 40.1848C180.38 40.1419 180.199 40.1205 180.023 40.1205C179.776 40.1205 179.594 40.1539 179.48 40.2205C179.366 40.2871 179.309 40.3728 179.309 40.4775C179.309 40.5727 179.348 40.6441 179.43 40.6918C179.516 40.7394 179.627 40.7775 179.766 40.806C179.903 40.8346 180.053 40.8608 180.215 40.8846C180.383 40.9037 180.549 40.9346 180.715 40.9774C180.882 41.0203 181.032 41.0822 181.165 41.1631C181.303 41.2393 181.415 41.3464 181.5 41.4844C181.587 41.6178 181.63 41.7938 181.63 42.0129C181.63 42.2509 181.558 42.4628 181.415 42.6484C181.272 42.8293 181.065 42.9721 180.795 43.0769C180.527 43.1817 180.201 43.234 179.815 43.234Z" fill="white"/>
<path d="M175.002 43.1767V39.3348H176.116V43.1767H175.002ZM175.558 38.7992C175.353 38.7992 175.187 38.7397 175.058 38.6207C174.931 38.5016 174.866 38.3541 174.866 38.1779C174.866 38.0017 174.931 37.8542 175.058 37.7352C175.187 37.6161 175.353 37.5566 175.558 37.5566C175.764 37.5566 175.93 37.6138 176.058 37.728C176.187 37.8375 176.252 37.9803 176.252 38.1565C176.252 38.3422 176.187 38.4969 176.058 38.6207C175.934 38.7397 175.768 38.7992 175.558 38.7992Z" fill="white"/>
<path d="M171.287 43.234C170.872 43.234 170.504 43.1507 170.18 42.9841C169.856 42.8127 169.602 42.577 169.415 42.2771C169.235 41.9772 169.145 41.6367 169.145 41.2559C169.145 40.8703 169.235 40.5299 169.415 40.2347C169.602 39.9348 169.856 39.7015 170.18 39.5349C170.504 39.3635 170.872 39.2778 171.287 39.2778C171.692 39.2778 172.044 39.3635 172.343 39.5349C172.644 39.7015 172.865 39.942 173.008 40.2562L172.144 40.7203C172.044 40.5395 171.917 40.4061 171.765 40.3204C171.618 40.2347 171.456 40.1919 171.28 40.1919C171.089 40.1919 170.918 40.2347 170.765 40.3204C170.613 40.4061 170.492 40.5275 170.401 40.6846C170.316 40.8417 170.272 41.0322 170.272 41.2559C170.272 41.4796 170.316 41.6701 170.401 41.8272C170.492 41.9843 170.613 42.1057 170.765 42.1914C170.918 42.2771 171.089 42.32 171.28 42.32C171.456 42.32 171.618 42.2794 171.765 42.1986C171.917 42.1129 172.044 41.9772 172.144 41.7915L173.008 42.2628C172.865 42.5722 172.644 42.8127 172.343 42.9841C172.044 43.1507 171.692 43.234 171.287 43.234Z" fill="white"/>
<path d="M165.459 43.234C165.021 43.234 164.635 43.1483 164.301 42.9769C163.973 42.8056 163.719 42.5722 163.538 42.2771C163.356 41.9772 163.266 41.6367 163.266 41.2559C163.266 40.8703 163.355 40.5299 163.531 40.2347C163.712 39.9348 163.956 39.7015 164.265 39.5349C164.576 39.3635 164.926 39.2778 165.316 39.2778C165.692 39.2778 166.03 39.3587 166.329 39.5206C166.634 39.6777 166.875 39.9062 167.05 40.2062C167.228 40.5013 167.315 40.856 167.315 41.2702C167.315 41.3131 167.313 41.363 167.309 41.4202C167.303 41.4725 167.299 41.5225 167.293 41.5701H164.173V40.9203H166.708L166.28 41.1131C166.28 40.9132 166.239 40.7394 166.158 40.5918C166.077 40.4442 165.966 40.3299 165.823 40.249C165.68 40.1633 165.514 40.1205 165.323 40.1205C165.132 40.1205 164.963 40.1633 164.816 40.249C164.673 40.3299 164.561 40.4466 164.48 40.5989C164.399 40.7466 164.359 40.9226 164.359 41.1274V41.2988C164.359 41.5082 164.404 41.6939 164.495 41.8558C164.589 42.0129 164.72 42.1343 164.887 42.22C165.059 42.3009 165.258 42.3414 165.488 42.3414C165.692 42.3414 165.871 42.3105 166.023 42.2485C166.18 42.1866 166.323 42.0938 166.452 41.97L167.044 42.6127C166.868 42.8127 166.647 42.9675 166.38 43.0769C166.112 43.1817 165.806 43.234 165.459 43.234Z" fill="white"/>
<path d="M159.16 43.1769V39.335H160.223V40.4204L160.073 40.1062C160.187 39.8348 160.371 39.6301 160.624 39.4921C160.875 39.3492 161.183 39.2778 161.544 39.2778V40.3062C161.497 40.3013 161.453 40.299 161.416 40.299C161.378 40.2942 161.338 40.2919 161.294 40.2919C160.989 40.2919 160.742 40.3799 160.552 40.5561C160.365 40.7275 160.273 40.9965 160.273 41.363V43.1769H159.16Z" fill="white"/>
<path d="M152.711 43.177V38.1782H154.875C155.321 38.1782 155.707 38.252 156.031 38.3996C156.355 38.5424 156.605 38.7495 156.781 39.0209C156.957 39.2922 157.045 39.6159 157.045 39.9921C157.045 40.3634 156.957 40.6848 156.781 40.9561C156.605 41.2275 156.355 41.4369 156.031 41.5846C155.707 41.7274 155.321 41.7988 154.875 41.7988H153.353L153.867 41.2775V43.177H152.711ZM153.867 41.406L153.353 40.8562H154.81C155.168 40.8562 155.434 40.7799 155.61 40.6276C155.786 40.4753 155.875 40.2634 155.875 39.9921C155.875 39.7159 155.786 39.5017 155.61 39.3494C155.434 39.1971 155.168 39.1209 154.81 39.1209H153.353L153.867 38.571V41.406Z" fill="white"/>
</g>
</svg>
