<svg width="48" height="48" viewBox="0 0 48 48" fill="none" xmlns="http://www.w3.org/2000/svg">
<g clip-path="url(#clip0_2124_7245)">
<path d="M12.6502 33.6109V15.0109H17.9002L19.4002 13.5109H28.7502L30.2502 15.0109H35.5002V33.6109H12.6502ZM15.9611 30.3H32.1893V18.35H15.9611V30.3ZM24.059 27.2195C24.8488 27.2195 25.5165 26.9391 26.0621 26.3781C26.6078 25.8171 26.8806 25.1418 26.8806 24.352C26.8806 23.5811 26.6049 22.9181 26.0533 22.3631C25.5018 21.808 24.8311 21.5305 24.0413 21.5305C23.2516 21.5305 22.5839 21.8109 22.0382 22.3719C21.4926 22.9329 21.2197 23.5988 21.2197 24.3697C21.2197 25.1595 21.4955 25.8319 22.0471 26.387C22.5986 26.942 23.2693 27.2195 24.059 27.2195ZM18.1328 0.763049C19.1198 0.487016 20.1087 0.290833 21.0996 0.1745C22.0906 0.0581662 23.0929 0 24.1067 0C27.2067 0 30.152 0.558333 32.9426 1.675C35.7332 2.79167 38.1987 4.33635 40.3393 6.30905C42.4799 8.28175 44.2335 10.6026 45.6002 13.2715C46.9669 15.9405 47.7835 18.8166 48.0502 21.9H44.4001C44.2001 19.4507 43.5806 17.1671 42.5415 15.049C41.5024 12.9308 40.1524 11.0678 38.4915 9.4598C36.8306 7.85183 34.9183 6.54423 32.7545 5.537C30.5908 4.52977 28.2937 3.9218 25.8633 3.7131L29.2111 7.0609L26.8632 9.437L18.1328 0.763049ZM29.9176 47.2369C28.9389 47.513 27.9582 47.7091 26.9755 47.8255C25.9929 47.9418 24.999 48 23.9937 48C20.8604 48 17.902 47.4417 15.1187 46.325C12.3354 45.2083 9.87301 43.6654 7.73165 41.6963C5.59031 39.7271 3.83306 37.4104 2.4599 34.7463C1.08676 32.0821 0.250195 29.2 -0.0498047 26.1H3.6457C3.8487 28.5493 4.46976 30.833 5.5089 32.951C6.54803 35.0692 7.89803 36.9322 9.5589 38.5402C11.2198 40.1482 13.1321 41.4558 15.2958 42.463C17.4596 43.4702 19.7567 44.0782 22.1871 44.2869L18.8393 40.9391L21.1871 38.5348L29.9176 47.2369Z" fill="#F8F9FA"/>
</g>
<defs>
<clipPath id="clip0_2124_7245">
<rect width="48" height="48" fill="white"/>
</clipPath>
</defs>
</svg>
