<svg width="48" height="48" viewBox="0 0 48 48" fill="none" xmlns="http://www.w3.org/2000/svg">
<path d="M3.70117 44.2988V26.2401L8.53487 11.689H22.111C22.0363 12.2687 22.007 12.8424 22.0229 13.4102C22.0389 13.9779 22.1001 14.5437 22.2066 15.1075H10.9838L8.28157 23.2999H26.8001C27.9638 24.2651 29.2896 25.0164 30.7773 25.5537C32.2649 26.091 33.836 26.3397 35.4903 26.2999H7.10767V36.6923H36.8925V25.7749C37.4921 25.7041 38.0791 25.5781 38.6536 25.3968C39.228 25.2155 39.7805 24.9962 40.311 24.739V44.2988H35.9762V40.0988H8.02397V44.2988H3.70117ZM31.7905 34.2401C32.557 34.2401 33.2006 33.9776 33.7213 33.4526C34.2419 32.9276 34.5022 32.2901 34.5022 31.5401C34.5022 30.7623 34.2377 30.1012 33.7088 29.5568C33.1798 29.0123 32.5443 28.7401 31.8022 28.7401C31.0165 28.7401 30.3534 29.0111 29.8129 29.5533C29.2725 30.0955 29.0022 30.7538 29.0022 31.5283C29.0022 32.3028 29.2713 32.9484 29.8095 33.4651C30.3477 33.9817 31.008 34.2401 31.7905 34.2401ZM12.3481 34.2401C13.1146 34.2401 13.7582 33.9776 14.2789 33.4526C14.7995 32.9276 15.0599 32.2901 15.0599 31.5401C15.0599 30.7623 14.7954 30.1012 14.2664 29.5568C13.7374 29.0123 13.1019 28.7401 12.3599 28.7401C11.5741 28.7401 10.911 29.0111 10.3705 29.5533C9.83009 30.0955 9.55987 30.7538 9.55987 31.5283C9.55987 32.3028 9.82896 32.9484 10.3671 33.4651C10.9053 33.9817 11.5656 34.2401 12.3481 34.2401Z" fill="#54A6FF"/>
<path fill-rule="evenodd" clip-rule="evenodd" d="M28.0049 6.48361C29.8676 4.62058 32.1227 3.68906 34.7703 3.68906C37.4099 3.68906 39.6599 4.61406 41.5203 6.46406C43.3807 8.31406 44.3109 10.5724 44.3109 13.2391C44.3109 15.8977 43.3839 18.1541 41.5299 20.0081C39.6759 21.8621 37.4196 22.7891 34.7609 22.7891C32.1276 22.7891 29.8776 21.8557 28.0109 19.9891C26.1443 18.1224 25.2109 15.8805 25.2109 13.2635C25.2109 10.6066 26.1423 8.34665 28.0049 6.48361ZM33.9152 11.8467H35.8446V18.9967H33.9152V11.8467ZM35.7457 7.68741C35.5131 7.47544 35.2265 7.36946 34.8859 7.36946C34.5374 7.36946 34.2551 7.47544 34.0392 7.68741C33.8232 7.89938 33.7152 8.17963 33.7152 8.52816C33.7152 8.86876 33.8169 9.14901 34.0201 9.36891C34.2234 9.58885 34.5203 9.71548 34.9109 9.74881C35.2282 9.74881 35.5048 9.63885 35.7407 9.41891C35.9766 9.19901 36.0946 8.91043 36.0946 8.55316C36.0946 8.18796 35.9783 7.89938 35.7457 7.68741Z" fill="#54A6FF"/>
</svg>
