<svg width="24" height="24" viewBox="0 0 24 24" fill="none" xmlns="http://www.w3.org/2000/svg">
<path d="M9.30775 11.5V10.6155H14.6923V11.5H9.30775ZM10.3078 13.8845V13H13.6923V13.8845H10.3078ZM9.9615 21L8.84225 17.0655C8.00375 16.5732 7.32042 15.8776 6.79225 14.9788C6.26408 14.0801 6 13.0872 6 12C6 10.9128 6.26408 9.91992 6.79225 9.02125C7.32042 8.12242 8.00375 7.42683 8.84225 6.9345L9.9615 3H14.0385L15.1578 6.9345C15.9963 7.42683 16.6796 8.12242 17.2078 9.02125C17.7359 9.91992 18 10.9128 18 12C18 13.0872 17.7359 14.0801 17.2078 14.9788C16.6796 15.8776 15.9963 16.5732 15.1578 17.0655L14.0385 21H9.9615ZM12 17C13.3833 17 14.5625 16.5125 15.5375 15.5375C16.5125 14.5625 17 13.3833 17 12C17 10.6167 16.5125 9.4375 15.5375 8.4625C14.5625 7.4875 13.3833 7 12 7C10.6167 7 9.4375 7.4875 8.4625 8.4625C7.4875 9.4375 7 10.6167 7 12C7 13.3833 7.4875 14.5625 8.4625 15.5375C9.4375 16.5125 10.6167 17 12 17ZM10.0615 6.327C10.4077 6.218 10.7382 6.13525 11.053 6.07875C11.3677 6.02242 11.6833 5.99425 12 5.99425C12.3167 5.99425 12.6323 6.02242 12.947 6.07875C13.2618 6.13525 13.5923 6.218 13.9385 6.327L13.2693 4H10.7308L10.0615 6.327ZM10.7308 20H13.2693L13.9385 17.673C13.5923 17.782 13.2618 17.8606 12.947 17.9087C12.6323 17.9567 12.3167 17.9808 12 17.9808C11.6833 17.9808 11.3677 17.9567 11.053 17.9087C10.7382 17.8606 10.4077 17.782 10.0615 17.673L10.7308 20Z" fill="white"/>
</svg>
